<svg xmlns="http://www.w3.org/2000/svg" width="860" height="460" viewBox="0 0 860 460" font-family="ui-monospace,SFMono-Regular,Menlo,Consolas,monospace" role="img" aria-label="Commit strata: 1,037 commits by period"><defs><filter id="g0" x="0" y="0" width="100%" height="100%"><feTurbulence type="fractalNoise" baseFrequency="0.012 0.036" numOctaves="3" seed="3"/><feColorMatrix values="0 0 0 0 0  0 0 0 0 0  0 0 0 0 0  1.8 0 0 0 -0.7"/><feComposite in2="SourceGraphic" operator="in"/></filter><filter id="g1" x="0" y="0" width="100%" height="100%"><feTurbulence type="fractalNoise" baseFrequency="0.022 0.066" numOctaves="3" seed="4"/><feColorMatrix values="0 0 0 0 0  0 0 0 0 0  0 0 0 0 0  1.8 0 0 0 -0.7"/><feComposite in2="SourceGraphic" operator="in"/></filter><filter id="g2" x="0" y="0" width="100%" height="100%"><feTurbulence type="fractalNoise" baseFrequency="0.032 0.096" numOctaves="3" seed="5"/><feColorMatrix values="0 0 0 0 0  0 0 0 0 0  0 0 0 0 0  1.8 0 0 0 -0.7"/><feComposite in2="SourceGraphic" operator="in"/></filter><filter id="g3" x="0" y="0" width="100%" height="100%"><feTurbulence type="fractalNoise" baseFrequency="0.042 0.126" numOctaves="3" seed="6"/><feColorMatrix values="0 0 0 0 0  0 0 0 0 0  0 0 0 0 0  1.8 0 0 0 -0.7"/><feComposite in2="SourceGraphic" operator="in"/></filter><filter id="g4" x="0" y="0" width="100%" height="100%"><feTurbulence type="fractalNoise" baseFrequency="0.052 0.156" numOctaves="3" seed="7"/><feColorMatrix values="0 0 0 0 0  0 0 0 0 0  0 0 0 0 0  1.8 0 0 0 -0.7"/><feComposite in2="SourceGraphic" operator="in"/></filter><filter id="g5" x="0" y="0" width="100%" height="100%"><feTurbulence type="fractalNoise" baseFrequency="0.062 0.186" numOctaves="3" seed="8"/><feColorMatrix values="0 0 0 0 0  0 0 0 0 0  0 0 0 0 0  1.8 0 0 0 -0.7"/><feComposite in2="SourceGraphic" operator="in"/></filter><filter id="g6" x="0" y="0" width="100%" height="100%"><feTurbulence type="fractalNoise" baseFrequency="0.072 0.216" numOctaves="3" seed="9"/><feColorMatrix values="0 0 0 0 0  0 0 0 0 0  0 0 0 0 0  1.8 0 0 0 -0.7"/><feComposite in2="SourceGraphic" operator="in"/></filter><filter id="g7" x="0" y="0" width="100%" height="100%"><feTurbulence type="fractalNoise" baseFrequency="0.082 0.246" numOctaves="3" seed="10"/><feColorMatrix values="0 0 0 0 0  0 0 0 0 0  0 0 0 0 0  1.8 0 0 0 -0.7"/><feComposite in2="SourceGraphic" operator="in"/></filter></defs><rect width="860" height="460" rx="6" fill="#14100c"/><text x="32" y="40" fill="#f0e6da" font-size="15" font-weight="700" letter-spacing="1">COMMIT STRATA</text><text x="32" y="60" fill="#a08f7e" font-size="12">newest on top · bed thickness = share of 1,037 commits</text><path d="M96 92.0 Q126 93.2 156 90.7 Q186 86.9 216 95.5 Q246 92.4 276 92.6 Q306 95.9 336 91.2 Q366 94.1 396 88.9 Q426 87.1 456 89.8 Q486 96.6 516 89.5 Q546 87.2 576 90.8 L576 219.4 Q546 216.0 516 218.4 Q486 216.1 456 218.5 Q426 221.7 396 215.5 Q366 221.2 336 219.8 Q306 212.6 276 213.4 Q246 219.2 216 216.3 Q186 222.0 156 216.6 Q126 213.5 96 216.5 Z" fill="#e07a3f"><title>2026-09 · 411 commits</title></path><path d="M96 92.0 Q126 93.2 156 90.7 Q186 86.9 216 95.5 Q246 92.4 276 92.6 Q306 95.9 336 91.2 Q366 94.1 396 88.9 Q426 87.1 456 89.8 Q486 96.6 516 89.5 Q546 87.2 576 90.8 L576 219.4 Q546 216.0 516 218.4 Q486 216.1 456 218.5 Q426 221.7 396 215.5 Q366 221.2 336 219.8 Q306 212.6 276 213.4 Q246 219.2 216 216.3 Q186 222.0 156 216.6 Q126 213.5 96 216.5 Z" fill="#000" opacity="0.55" filter="url(#g0)"/><path d="M96 216.5 Q126 213.5 156 216.6 Q186 222.0 216 216.3 Q246 219.2 276 213.4 Q306 212.6 336 219.8 Q366 221.2 396 215.5 Q426 221.7 456 218.5 Q486 216.1 516 218.4 Q546 216.0 576 219.4 L576 345.4 Q546 348.3 516 346.0 Q486 343.6 456 348.4 Q426 347.8 396 343.6 Q366 349.3 336 347.3 Q306 349.6 276 343.7 Q246 350.4 216 344.4 Q186 343.3 156 348.1 Q126 343.8 96 346.8 Z" fill="#c87040"><title>2026-08 · 430 commits</title></path><path d="M96 216.5 Q126 213.5 156 216.6 Q186 222.0 216 216.3 Q246 219.2 276 213.4 Q306 212.6 336 219.8 Q366 221.2 396 215.5 Q426 221.7 456 218.5 Q486 216.1 516 218.4 Q546 216.0 576 219.4 L576 345.4 Q546 348.3 516 346.0 Q486 343.6 456 348.4 Q426 347.8 396 343.6 Q366 349.3 336 347.3 Q306 349.6 276 343.7 Q246 350.4 216 344.4 Q186 343.3 156 348.1 Q126 343.8 96 346.8 Z" fill="#000" opacity="0.55" filter="url(#g1)"/><path d="M96 346.8 Q126 343.8 156 348.1 Q186 343.3 216 344.4 Q246 350.4 276 343.7 Q306 349.6 336 347.3 Q366 349.3 396 343.6 Q426 347.8 456 348.4 Q486 343.6 516 346.0 Q546 348.3 576 345.4 L576 388.0 Q546 391.6 516 390.8 Q486 390.1 456 388.2 Q426 389.8 396 386.0 Q366 388.4 336 391.4 Q306 387.6 276 389.6 Q246 391.3 216 388.0 Q186 386.5 156 388.0 Q126 388.2 96 389.2 Z" fill="#b16642"><title>2026-07 · 140 commits</title></path><path d="M96 346.8 Q126 343.8 156 348.1 Q186 343.3 216 344.4 Q246 350.4 276 343.7 Q306 349.6 336 347.3 Q366 349.3 396 343.6 Q426 347.8 456 348.4 Q486 343.6 516 346.0 Q546 348.3 576 345.4 L576 388.0 Q546 391.6 516 390.8 Q486 390.1 456 388.2 Q426 389.8 396 386.0 Q366 388.4 336 391.4 Q306 387.6 276 389.6 Q246 391.3 216 388.0 Q186 386.5 156 388.0 Q126 388.2 96 389.2 Z" fill="#000" opacity="0.55" filter="url(#g2)"/><path d="M96 389.2 Q126 388.2 156 388.0 Q186 386.5 216 388.0 Q246 391.3 276 389.6 Q306 387.6 336 391.4 Q366 388.4 396 386.0 Q426 389.8 456 388.2 Q486 390.1 516 390.8 Q546 391.6 576 388.0 L576 391.4 Q546 396.6 516 392.6 Q486 389.6 456 394.2 Q426 397.4 396 393.5 Q366 396.9 336 395.9 Q306 394.7 276 396.2 Q246 388.0 216 391.6 Q186 389.5 156 390.3 Q126 396.8 96 393.1 Z" fill="#995c43"><title>2026-06 · 1 commit</title></path><path d="M96 389.2 Q126 388.2 156 388.0 Q186 386.5 216 388.0 Q246 391.3 276 389.6 Q306 387.6 336 391.4 Q366 388.4 396 386.0 Q426 389.8 456 388.2 Q486 390.1 516 390.8 Q546 391.6 576 388.0 L576 391.4 Q546 396.6 516 392.6 Q486 389.6 456 394.2 Q426 397.4 396 393.5 Q366 396.9 336 395.9 Q306 394.7 276 396.2 Q246 388.0 216 391.6 Q186 389.5 156 390.3 Q126 396.8 96 393.1 Z" fill="#000" opacity="0.55" filter="url(#g3)"/><path d="M96 393.1 Q126 396.8 156 390.3 Q186 389.5 216 391.6 Q246 388.0 276 396.2 Q306 394.7 336 395.9 Q366 396.9 396 393.5 Q426 397.4 456 394.2 Q486 389.6 516 392.6 Q546 396.6 576 391.4 L576 398.7 Q546 398.1 516 398.2 Q486 400.1 456 394.9 Q426 394.7 396 393.9 Q366 399.9 336 400.0 Q306 392.0 276 395.7 Q246 395.7 216 397.1 Q186 395.3 156 396.7 Q126 393.3 96 396.9 Z" fill="#815244"><title>2026-04 · 2 commits</title></path><path d="M96 393.1 Q126 396.8 156 390.3 Q186 389.5 216 391.6 Q246 388.0 276 396.2 Q306 394.7 336 395.9 Q366 396.9 396 393.5 Q426 397.4 456 394.2 Q486 389.6 516 392.6 Q546 396.6 576 391.4 L576 398.7 Q546 398.1 516 398.2 Q486 400.1 456 394.9 Q426 394.7 396 393.9 Q366 399.9 336 400.0 Q306 392.0 276 395.7 Q246 395.7 216 397.1 Q186 395.3 156 396.7 Q126 393.3 96 396.9 Z" fill="#000" opacity="0.55" filter="url(#g4)"/><path d="M96 396.9 Q126 393.3 156 396.7 Q186 395.3 216 397.1 Q246 395.7 276 395.7 Q306 392.0 336 400.0 Q366 399.9 396 393.9 Q426 394.7 456 394.9 Q486 400.1 516 398.2 Q546 398.1 576 398.7 L576 400.4 Q546 395.9 516 398.7 Q486 397.9 456 402.6 Q426 396.1 396 399.9 Q366 403.2 336 400.6 Q306 396.9 276 399.4 Q246 401.8 216 400.3 Q186 395.6 156 401.3 Q126 395.3 96 400.7 Z" fill="#694845"><title>2026-02 · 1 commit</title></path><path d="M96 396.9 Q126 393.3 156 396.7 Q186 395.3 216 397.1 Q246 395.7 276 395.7 Q306 392.0 336 400.0 Q366 399.9 396 393.9 Q426 394.7 456 394.9 Q486 400.1 516 398.2 Q546 398.1 576 398.7 L576 400.4 Q546 395.9 516 398.7 Q486 397.9 456 402.6 Q426 396.1 396 399.9 Q366 403.2 336 400.6 Q306 396.9 276 399.4 Q246 401.8 216 400.3 Q186 395.6 156 401.3 Q126 395.3 96 400.7 Z" fill="#000" opacity="0.55" filter="url(#g5)"/><path d="M96 400.7 Q126 395.3 156 401.3 Q186 395.6 216 400.3 Q246 401.8 276 399.4 Q306 396.9 336 400.6 Q366 403.2 396 399.9 Q426 396.1 456 402.6 Q486 397.9 516 398.7 Q546 395.9 576 400.4 L576 406.6 Q546 409.9 516 403.5 Q486 401.7 456 405.4 Q426 401.0 396 402.8 Q366 400.9 336 402.4 Q306 401.5 276 404.1 Q246 403.7 216 407.6 Q186 401.6 156 401.8 Q126 409.4 96 404.5 Z" fill="#523e47"><title>2026-01 · 1 commit</title></path><path d="M96 400.7 Q126 395.3 156 401.3 Q186 395.6 216 400.3 Q246 401.8 276 399.4 Q306 396.9 336 400.6 Q366 403.2 396 399.9 Q426 396.1 456 402.6 Q486 397.9 516 398.7 Q546 395.9 576 400.4 L576 406.6 Q546 409.9 516 403.5 Q486 401.7 456 405.4 Q426 401.0 396 402.8 Q366 400.9 336 402.4 Q306 401.5 276 404.1 Q246 403.7 216 407.6 Q186 401.6 156 401.8 Q126 409.4 96 404.5 Z" fill="#000" opacity="0.55" filter="url(#g6)"/><path d="M96 404.5 Q126 409.4 156 401.8 Q186 401.6 216 407.6 Q246 403.7 276 404.1 Q306 401.5 336 402.4 Q366 400.9 396 402.8 Q426 401.0 456 405.4 Q486 401.7 516 403.5 Q546 409.9 576 406.6 L576 420.0 Q546 420.0 516 420.0 Q486 420.0 456 420.0 Q426 420.0 396 420.0 Q366 420.0 336 420.0 Q306 420.0 276 420.0 Q246 420.0 216 420.0 Q186 420.0 156 420.0 Q126 420.0 96 420.0 Z" fill="#3a3448"><title>2024-10 ~ 2025-12 · 51 commits</title></path><path d="M96 404.5 Q126 409.4 156 401.8 Q186 401.6 216 407.6 Q246 403.7 276 404.1 Q306 401.5 336 402.4 Q366 400.9 396 402.8 Q426 401.0 456 405.4 Q486 401.7 516 403.5 Q546 409.9 576 406.6 L576 420.0 Q546 420.0 516 420.0 Q486 420.0 456 420.0 Q426 420.0 396 420.0 Q366 420.0 336 420.0 Q306 420.0 276 420.0 Q246 420.0 216 420.0 Q186 420.0 156 420.0 Q126 420.0 96 420.0 Z" fill="#000" opacity="0.55" filter="url(#g7)"/><line x1="70" y1="92" x2="70" y2="420" stroke="#a08f7e" stroke-width="1"/><line x1="65" y1="92" x2="70" y2="92" stroke="#a08f7e"/><text x="61" y="96" fill="#a08f7e" font-size="10" text-anchor="end">0%</text><line x1="65" y1="174" x2="70" y2="174" stroke="#a08f7e"/><text x="61" y="178" fill="#a08f7e" font-size="10" text-anchor="end">25%</text><line x1="65" y1="256" x2="70" y2="256" stroke="#a08f7e"/><text x="61" y="260" fill="#a08f7e" font-size="10" text-anchor="end">50%</text><line x1="65" y1="338" x2="70" y2="338" stroke="#a08f7e"/><text x="61" y="342" fill="#a08f7e" font-size="10" text-anchor="end">75%</text><line x1="65" y1="420" x2="70" y2="420" stroke="#a08f7e"/><text x="61" y="424" fill="#a08f7e" font-size="10" text-anchor="end">100%</text><path d="M580 154.3 L596 154.3 L614 154.3" fill="none" stroke="#a08f7e" stroke-width="0.8"/><text x="620" y="158.3" font-size="13"><tspan fill="#f0e6da" font-weight="700">2026-09</tspan><tspan fill="#a08f7e"> · 411 commits</tspan></text><path d="M580 281.7 L596 281.7 L614 281.7" fill="none" stroke="#a08f7e" stroke-width="0.8"/><text x="620" y="285.7" font-size="13"><tspan fill="#f0e6da" font-weight="700">2026-08</tspan><tspan fill="#a08f7e"> · 430 commits</tspan></text><path d="M580 368.0 L596 368.0 L614 320.0" fill="none" stroke="#a08f7e" stroke-width="0.8"/><text x="620" y="324.0" font-size="13"><tspan fill="#f0e6da" font-weight="700">2026-07</tspan><tspan fill="#a08f7e"> · 140 commits</tspan></text><path d="M580 391.1 L596 391.1 L614 340.0" fill="none" stroke="#a08f7e" stroke-width="0.8"/><text x="620" y="344.0" font-size="13"><tspan fill="#f0e6da" font-weight="700">2026-06</tspan><tspan fill="#a08f7e"> · 1 commit</tspan></text><path d="M580 395.0 L596 395.0 L614 360.0" fill="none" stroke="#a08f7e" stroke-width="0.8"/><text x="620" y="364.0" font-size="13"><tspan fill="#f0e6da" font-weight="700">2026-04</tspan><tspan fill="#a08f7e"> · 2 commits</tspan></text><path d="M580 398.8 L596 398.8 L614 380.0" fill="none" stroke="#a08f7e" stroke-width="0.8"/><text x="620" y="384.0" font-size="13"><tspan fill="#f0e6da" font-weight="700">2026-02</tspan><tspan fill="#a08f7e"> · 1 commit</tspan></text><path d="M580 402.6 L596 402.6 L614 400.0" fill="none" stroke="#a08f7e" stroke-width="0.8"/><text x="620" y="404.0" font-size="13"><tspan fill="#f0e6da" font-weight="700">2026-01</tspan><tspan fill="#a08f7e"> · 1 commit</tspan></text><path d="M580 412.3 L596 412.3 L614 420.0" fill="none" stroke="#a08f7e" stroke-width="0.8"/><text x="620" y="424.0" font-size="13"><tspan fill="#f0e6da" font-weight="700">2024-10 ~ 2025-12</tspan><tspan fill="#a08f7e"> · 51 commits</tspan></text></svg>